<svg xmlns="http://www.w3.org/2000/svg" width="1280" height="287.252" viewBox="0 0 1280 287.252">
  <defs>
    <style>
      .cls-1 {
        fill: #65eded;
      }

      .cls-2 {
        fill: #ffe859;
      }
    </style>
  </defs>
  <title>background</title>
  <g id="レイヤー_2" data-name="レイヤー 2">
    <g id="レイヤー_4" data-name="レイヤー 4">
      <polygon class="cls-1" points="0 188 0 219.896 0 252 0 286.556 80.263 266.987 75.25 287.252 162.447 265.991 157.439 286.256 244.642 264.995 239.631 285.26 326.83 263.999 321.818 284.264 409.018 263.003 404.005 283.268 491.207 262.007 486.194 282.272 573.39 261.011 568.374 281.276 655.568 260.016 650.553 280.281 737.752 259.02 732.736 279.285 819.928 258.024 814.915 278.289 902.112 257.028 897.099 277.293 984.298 256.032 979.286 276.297 1066.486 255.036 1061.473 275.302 1148.671 254.041 1143.657 274.306 1230.853 253.045 1225.839 273.31 1280 260.104 1280 252 1280 193.444 1280 188 0 188"/>
      <polyline class="cls-2" points="1280 0 0 0 0 274.556 80.263 254.987 75.25 275.252 162.447 253.991 157.439 274.256 244.642 252.995 239.631 273.26 326.83 251.999 321.818 272.264 409.018 251.003 404.005 271.268 491.207 250.007 486.194 270.272 573.39 249.011 568.374 269.276 655.568 248.016 650.553 268.281 737.752 247.02 732.736 267.285 819.928 246.024 814.915 266.289 902.112 245.028 897.099 265.293 984.298 244.032 979.286 264.297 1066.486 243.036 1061.473 263.302 1148.671 242.041 1143.657 262.306 1230.853 241.045 1225.839 261.31 1280 248.104"/>
    </g>
  </g>
</svg>
