<svg id="レイヤー_2" data-name="レイヤー 2" xmlns="http://www.w3.org/2000/svg" width="144" height="144" viewBox="0 0 144 144">
  <defs>
    <style>
      .cls-1 {
        fill: #ddd;
      }

      .cls-2 {
        fill: none;
        stroke: #fff;
        stroke-linecap: round;
        stroke-miterlimit: 10;
        stroke-width: 2px;
      }
    </style>
  </defs>
  <title>0</title>
  <polygon class="cls-1" points="52.359 34.807 62.25 18.568 66.788 17.963 94.625 22.502 120.041 44.136 121.252 68.342 109.451 84.227 78.437 81.504 48.331 54.423 52.359 34.807"/>
  <polyline class="cls-2" points="61.493 23.561 59.375 37.328 90.087 64.257 82.522 75.604"/>
  <line class="cls-2" x1="119.587" y1="68.342" x2="90.087" y2="64.257"/>
  <path class="cls-1" d="M77.856,86.078,56.178,67.618c-1.258.8-3.663,2.411-4.216,3.3-.756,1.21-1.059,5.749-1.059,5.749s-3.933,1.21-4.69,2.874-.605,6.051-.605,6.051-3.328.454-4.539,2.572-.756,5.446-.756,5.446-3.177,1.513-4.387,3.026-.756,5.144-.756,5.144a7.776,7.776,0,0,0-4.085,3.177c-1.21,2.269-.908,3.933,0,8.775s3.177,15.734,3.177,15.734l21.331-4.387a7.627,7.627,0,0,0,3.328-3.328,11.075,11.075,0,0,0,1.059-4.236,7.732,7.732,0,0,0,3.631-2.723A10.134,10.134,0,0,0,64.67,110.4s4.085-1.664,4.69-3.328a43.234,43.234,0,0,0,1.21-5.6s3.328-.454,4.387-3.026A16.3,16.3,0,0,0,76.017,93s5.3-.908,5.9-3.933a13.077,13.077,0,0,0,.262-2.558Z"/>
</svg>
