<svg id="レイヤー_2" data-name="レイヤー 2" xmlns="http://www.w3.org/2000/svg" width="144" height="144" viewBox="0 0 144 144">
  <defs>
    <style>
      .cls-1 {
        fill: #ddd;
      }

      .cls-2, .cls-3 {
        fill: none;
        stroke: #fff;
        stroke-miterlimit: 10;
        stroke-width: 2px;
      }

      .cls-2 {
        stroke-linecap: round;
      }
    </style>
  </defs>
  <title>2</title>
  <polygon class="cls-1" points="31.097 78.899 29.574 112.78 48.354 138.921 62.567 138.921 55.461 100.852 31.097 78.899"/>
  <polygon class="cls-1" points="65.358 138.921 57.745 99.076 44.04 87.148 37.441 61.769 37.441 44.257 55.714 12.279 82.616 38.674 87.184 51.871 88.2 138.921 65.358 138.921"/>
  <polygon class="cls-1" points="90.738 138.921 90.738 118.364 96.321 83.848 103.427 73.189 117.639 61.007 125.761 81.057 124.492 95.523 104.188 138.921 90.738 138.921"/>
  <line class="cls-2" x1="53.684" y1="138.921" x2="37.441" y2="109.989"/>
  <polyline class="cls-2" points="58.76 138.921 53.684 123.186 42.619 119.211"/>
  <polyline class="cls-2" points="76.271 138.921 74.749 122.932 79.063 109.989 77.063 55.17"/>
  <polyline class="cls-2" points="75.861 135.607 80.078 126.5 79.063 109.989"/>
  <polyline class="cls-2" points="75.11 126.729 66.374 117.602 63.836 93.746 52.415 84.61 50.689 76.742 54.953 67.606 50.689 48.064"/>
  <line class="cls-2" x1="54.252" y1="96.036" x2="52.415" y2="84.61"/>
  <line class="cls-2" x1="90.738" y1="124.455" x2="102.919" y2="88.924"/>
  <line class="cls-2" x1="98.859" y1="138.921" x2="113.071" y2="103.39"/>
  <polyline class="cls-2" points="95.052 138.921 102.919 119.211 108.713 114.286"/>
  <circle class="cls-3" cx="49.689" cy="45.399" r="2.665"/>
  <circle class="cls-3" cx="76.906" cy="52.505" r="2.665"/>
  <circle class="cls-3" cx="103.92" cy="86.259" r="2.665"/>
  <circle class="cls-3" cx="114.34" cy="100.098" r="2.665"/>
  <circle class="cls-3" cx="36.441" cy="106.689" r="2.665"/>
</svg>
