<svg id="Logo_FIXED" data-name="Logo — FIXED" xmlns="http://www.w3.org/2000/svg" width="400" height="400" viewBox="0 0 400 400">
  <defs>
    <style>
      .cls-1 {
        fill: #fff;
      }

      .cls-2 {
        fill: none;
      }
    </style>
  </defs>
  <title>Artboard 1</title>
  <g>
    <path class="cls-1" d="M153.623,301.589c94.343,0,145.936-78.161,145.936-145.936,0-2.221-.045-4.432-.147-6.631A104.358,104.358,0,0,0,325,122.465a102.382,102.382,0,0,1-29.456,8.074A51.468,51.468,0,0,0,318.1,102.167a102.788,102.788,0,0,1-32.568,12.45,51.337,51.337,0,0,0-87.408,46.777A145.617,145.617,0,0,1,92.4,107.805a51.331,51.331,0,0,0,15.878,68.474,50.914,50.914,0,0,1-23.231-6.416c-.011.214-.011.429-.011.654a51.313,51.313,0,0,0,41.15,50.285,51.212,51.212,0,0,1-23.163.879A51.349,51.349,0,0,0,150.939,257.3a102.923,102.923,0,0,1-63.7,21.956A104.413,104.413,0,0,1,75,278.55a145.209,145.209,0,0,0,78.623,23.039"/>
    <rect class="cls-2" width="400" height="400"/>
  </g>
</svg>
