<svg id="レイヤー_1" data-name="レイヤー 1" xmlns="http://www.w3.org/2000/svg" width="240" height="80" viewBox="0 0 240 80">
  <defs>
    <style>
      .cls-1 {
        fill: #1da1f2;
      }

      .cls-2 {
        fill: #fff;
      }
    </style>
  </defs>
  <title>Twitter</title>
  <rect class="cls-1" width="240" height="80"/>
  <g>
    <polygon class="cls-1" points="91.864 80 11.864 80 11.864 0 91.864 0 91.864 80 91.864 80"/>
    <path class="cls-2" d="M42.589,60.318c18.869,0,29.187-15.632,29.187-29.187,0-.444-.009-.886-.029-1.326a20.87,20.87,0,0,0,5.118-5.311,20.477,20.477,0,0,1-5.891,1.615,10.292,10.292,0,0,0,4.511-5.674,20.558,20.558,0,0,1-6.514,2.49,10.268,10.268,0,0,0-17.482,9.356A29.123,29.123,0,0,1,30.344,21.561,10.266,10.266,0,0,0,33.52,35.256a10.182,10.182,0,0,1-4.646-1.283c0,.043,0,.086,0,.131A10.263,10.263,0,0,0,37.1,44.16a10.243,10.243,0,0,1-4.633.176,10.27,10.27,0,0,0,9.583,7.125,20.585,20.585,0,0,1-12.741,4.391,20.863,20.863,0,0,1-2.447-.142,29.042,29.042,0,0,0,15.725,4.608"/>
  </g>
  <g>
    <path class="cls-2" d="M100.465,35.158v-11.5H96.581V21.9h9.879v1.758h-3.9v11.5Z"/>
    <path class="cls-2" d="M110.151,35.158l-2.672-9.9h2.074l1.318,5.361q.193.949.545,2.812h.07q.475-2.092.65-2.812l1.389-5.361h1.916l1.424,5.361q.088.387.316,1.345t.352,1.468h.07q.035-.158.246-1.2t.334-1.608l1.283-5.361H121.4l-2.548,9.9h-2.479l-1.266-4.9q-.281-1.143-.633-2.848h-.088q-.316,1.67-.633,2.865l-1.213,4.887Z"/>
    <path class="cls-2" d="M124.459,23.4a1.336,1.336,0,0,1-.932-.334,1.129,1.129,0,0,1-.369-.879,1.17,1.17,0,0,1,.36-.888,1.308,1.308,0,0,1,.94-.343,1.372,1.372,0,0,1,.958.343,1.143,1.143,0,0,1,.378.888,1.123,1.123,0,0,1-.378.87A1.372,1.372,0,0,1,124.459,23.4Zm-1.02,11.76v-9.9H125.5v9.9Z"/>
    <path class="cls-2" d="M131.93,35.387q-3.006,0-3.006-3.463v-5.01h-1.441V25.367l1.529-.105.229-2.742h1.74v2.742h2.584v1.652H130.98v5.027q0,1.793,1.441,1.793a2.674,2.674,0,0,0,1.072-.229l.369,1.529A6.652,6.652,0,0,1,131.93,35.387Z"/>
    <path class="cls-2" d="M139.049,35.387q-3.006,0-3.006-3.463v-5.01H134.6V25.367l1.529-.105.229-2.742h1.74v2.742h2.584v1.652H138.1v5.027q0,1.793,1.441,1.793a2.674,2.674,0,0,0,1.072-.229l.369,1.529A6.652,6.652,0,0,1,139.049,35.387Z"/>
    <path class="cls-2" d="M146.959,35.387a4.655,4.655,0,0,1-3.454-1.4,5.132,5.132,0,0,1-1.38-3.771,5.325,5.325,0,0,1,1.345-3.771A4.192,4.192,0,0,1,146.643,25a3.661,3.661,0,0,1,2.988,1.274,5.224,5.224,0,0,1,1.055,3.437,4.631,4.631,0,0,1-.105,1.037h-6.416a3.393,3.393,0,0,0,.949,2.215,2.89,2.89,0,0,0,2.109.809,4.229,4.229,0,0,0,2.355-.738l.721,1.318A5.883,5.883,0,0,1,146.959,35.387Zm-2.812-6.064h4.746a3.073,3.073,0,0,0-.571-1.986,2,2,0,0,0-1.644-.7,2.3,2.3,0,0,0-1.679.712A3.2,3.2,0,0,0,144.146,29.322Z"/>
    <path class="cls-2" d="M152.988,35.158v-9.9h1.688l.176,1.775h.053a4.444,4.444,0,0,1,1.266-1.5A2.571,2.571,0,0,1,157.7,25a2.643,2.643,0,0,1,1.125.229l-.387,1.793a3.316,3.316,0,0,0-.984-.158,2.106,2.106,0,0,0-1.318.519,3.843,3.843,0,0,0-1.09,1.608v6.17Z"/>
    <path class="cls-2" d="M164.871,25.086l-.176-1.969q1.037-.035,1.652-.088,5.59-.527,7.752-.7,3.2-.264,4.9-.316l.018,1.828a16.7,16.7,0,0,0-3.48.246,5.288,5.288,0,0,0-2.812,2.109,5.583,5.583,0,0,0-1.107,3.234,4.024,4.024,0,0,0,.343,1.7,3.632,3.632,0,0,0,.905,1.239,4.974,4.974,0,0,0,1.354.826,8.068,8.068,0,0,0,1.608.492,13.111,13.111,0,0,0,1.749.211l-.65,1.916a10.238,10.238,0,0,1-2.593-.466,8.637,8.637,0,0,1-2.276-1.107,5.2,5.2,0,0,1-1.652-1.854,5.289,5.289,0,0,1-.615-2.549,6.793,6.793,0,0,1,.9-3.454,6.573,6.573,0,0,1,2.109-2.329Q166.8,24.664,164.871,25.086Zm10.547,1.178,1.09-.457a21.968,21.968,0,0,1,1.477,2.479l-1.125.51A18.32,18.32,0,0,0,175.418,26.264Zm2-.756,1.072-.492a22.09,22.09,0,0,1,1.529,2.443l-1.09.527A16.526,16.526,0,0,0,177.422,25.508Z"/>
    <path class="cls-2" d="M111.329,53.094l1.037.387a10.165,10.165,0,0,1-2.514,4.236,9.455,9.455,0,0,0,3.445,1.547,4.083,4.083,0,0,0-.545.6,3.534,3.534,0,0,0-.439.7,10.243,10.243,0,0,1-3.586-1.863,12.423,12.423,0,0,1-3.322,1.811,4.125,4.125,0,0,0-.844-1.23v1.283h-1.6v-1.6q-.721.07-2,.211l-2.224.246q-.949.105-1.67.176l-.123-1.459q.264-.018.826-.079t.809-.079V52.215H97.108V50.844h15.768v1.371h-8.314v6.943a10.164,10.164,0,0,0,3.023-1.512,11.442,11.442,0,0,1-1.811-2.936l.967-.264h-1.617v-1.3h5.924Zm-.457-8.473V50H99.235V44.621Zm-7.91,7.594h-2.83v1h2.83Zm-2.83,2.2v1.055h2.83V54.412Zm0,3.428,2.83-.264v-.9h-2.83Zm9.07-11.074v-1.02h-8.367v1.02Zm0,2.109V47.838h-8.367v1.037Zm1.125,5.572H107.18a7.989,7.989,0,0,0,1.512,2.268A8.67,8.67,0,0,0,110.327,54.447Z"/>
    <path class="cls-2" d="M122.631,56.82l-.967,1.248a19.827,19.827,0,0,0-1.74-1.793v4.271h-1.617V56.328a12.984,12.984,0,0,1-2.689,3.023,5.323,5.323,0,0,0-1.072-1.2,9.714,9.714,0,0,0,1.846-1.626,12.606,12.606,0,0,0,1.582-2.153h-3.006V52.953h3.34V51.318h-3.393V49.895h1.863a8.269,8.269,0,0,0-.633-2.32l1.213-.316h-2.2V45.869h3.146V44.164h1.617v1.705h3.146v1.389h-2.179l1.265.3q-.668,1.688-.984,2.338h2.092v1.424h-3.339v1.635h3.181v1.424h-3.181v.3q.281.211.844.65t1.168.932Zm-1.986-9.562h-3.2a7.31,7.31,0,0,1,.721,2.355l-1.055.281h3.955l-1.23-.281A14.857,14.857,0,0,0,120.645,47.258Zm10.634,2.76v1.547h-1.9v8.912h-1.617V51.564h-2.32v.158q0,6.082-2.812,8.912a2.825,2.825,0,0,0-.519-.633,3.377,3.377,0,0,0-.659-.527,7.448,7.448,0,0,0,1.283-1.767,7.986,7.986,0,0,0,.738-2.057,15.573,15.573,0,0,0,.3-1.96q.07-.879.07-1.986V45.482l1.125.316a22.661,22.661,0,0,0,4.781-1.547l1.354,1.213a26.565,26.565,0,0,1-5.66,1.635v2.918Z"/>
    <path class="cls-2" d="M133.793,52.566l-1.248-.4a20.621,20.621,0,0,0,.773-4.641l1.2.176A20.958,20.958,0,0,1,133.793,52.566Zm4.535-3.428-1.125.527a22.3,22.3,0,0,0-.914-2.514V60.564H134.76V44.059h1.529v2.953l1.037-.422A13.878,13.878,0,0,1,138.328,49.139Zm5.818.633h5.1V51.02H137.555V49.771h4.939V48.734h-3.937v-1.16h3.938v-.949h-4.377v-1.23h4.377V44.059h1.652v1.336H148.7v1.23h-4.553v.949h4.1v1.16h-4.1Zm3.762,2.127v6.961a2.284,2.284,0,0,1-.149.914.948.948,0,0,1-.554.492,8.4,8.4,0,0,1-2.637.264,5.528,5.528,0,0,0-.492-1.441q.545.035,1.934.035.316-.018.316-.3V57.84h-5.959v2.725H138.82V51.9Zm-1.582,1.266h-5.959v1.107h5.959Zm-5.959,3.48h5.959V55.52h-5.959Z"/>
    <path class="cls-2" d="M155.625,47.188v1.564h3.164v1.424H157.1l.773.193q-.51,1.3-.914,2.127h1.6v1.441h-2.936v1.688h2.707v1.424h-2.707v3.48h-1.564v-3.48h-2.812V55.625h2.813V53.938h-2.988V52.5h1.582a7.676,7.676,0,0,0-.686-2.127l.738-.193h-1.934V48.752h3.287V47.188h-2.637V45.781h2.637V44.094h1.564v1.688h2.5v1.406Zm.65,5.309-.6-.158a20.625,20.625,0,0,0,.756-2.162H153.3a8.2,8.2,0,0,1,.7,2.162l-.58.158Zm9.545-1.635,1.02.369a17.317,17.317,0,0,1-2.021,5.871,8.77,8.77,0,0,0,2.672,2.145,4.958,4.958,0,0,0-1.107,1.336,9.944,9.944,0,0,1-2.479-2.127,10.3,10.3,0,0,1-2.2,2.145,4.524,4.524,0,0,0-.932-.967v.949h-1.512V44.85h7.172v3.393a2.17,2.17,0,0,1-.167.949,1.029,1.029,0,0,1-.624.492,10.183,10.183,0,0,1-2.865.246,4.751,4.751,0,0,0-.51-1.441q1.652.053,2.25.018.352-.018.352-.281v-1.9h-4.1v4.605h4.781ZM160.775,52.3v7.014a9.165,9.165,0,0,0,2.145-2.162A19.3,19.3,0,0,1,160.775,52.3Zm4.289,0h-2.883a15.536,15.536,0,0,0,1.6,3.445A13.867,13.867,0,0,0,165.064,52.3Z"/>
    <path class="cls-2" d="M169,46.221V44.744h8.068v1.477h-2.338v1.793H176.7V60.248h-1.354v-.932h-4.623v1.2h-1.318v-12.5h2.109V46.221Zm1.723,3.2V55.2h4.623V53.727a.707.707,0,0,1-.193.018h-.738a.977.977,0,0,1-.765-.237,1.5,1.5,0,0,1-.2-.923V49.42h-.844v1.424a4.537,4.537,0,0,1-1.23,3.41,3.274,3.274,0,0,0-.65-.58,3.741,3.741,0,0,0,1.037-2.848V49.42Zm0,8.561h4.623V56.4h-4.623Zm2.83-9.967V46.221h-.9v1.793Zm1.793,4.852V49.42h-1.055v3.146a.393.393,0,0,0,.044.229.211.211,0,0,0,.167.053H175q.229,0,.264-.053A.377.377,0,0,1,175.348,52.865Zm5.115,5.959h2.443a.686.686,0,0,0,.712-.527,12.4,12.4,0,0,0,.255-2.426,3.744,3.744,0,0,0,1.512.7,7.52,7.52,0,0,1-.606,3.015,1.864,1.864,0,0,1-1.749.782h-2.795a2.62,2.62,0,0,1-1.846-.492,2.717,2.717,0,0,1-.492-1.9V50.387h5.2v-3.9h-5.256v-1.6h6.873v8.279H183.1v-1.2h-3.551V57.98a.945.945,0,0,0,.176.686A1.179,1.179,0,0,0,180.463,58.824Z"/>
    <path class="cls-2" d="M190.869,44.094l1.582.51a30.439,30.439,0,0,1-1.775,3.568V60.529h-1.582V50.6a23.223,23.223,0,0,1-1.758,2.074,11.616,11.616,0,0,0-.914-1.687,16.284,16.284,0,0,0,2.522-3.085A19.847,19.847,0,0,0,190.869,44.094Zm.914,3.234h11.531v1.389H191.783ZM193,60.564v-5.7h9.211v5.643H200.52v-.721H194.6v.773Zm9-10.705V51.2h-8.771V49.859Zm-8.771,3.85V52.373h8.719v1.336Zm8.455-8.877v1.354h-8.209V44.832Zm-1.16,11.355H194.6v2.25h5.924Z"/>
    <path class="cls-2" d="M213.844,47.205h6.434v8.613H218.52v-.984h-4.676v5.73H212.1v-5.73h-4.658v1.072h-1.687v-8.7H212.1V44.076h1.74Zm-6.4,5.994H212.1V48.84h-4.658Zm6.4,0h4.676V48.84h-4.676Z"/>
  </g>
</svg>
