<svg id="レイヤー_1" data-name="レイヤー 1" xmlns="http://www.w3.org/2000/svg" width="80" height="80" viewBox="0 0 80 80"><defs><style>.cls-1{fill:#fff;}</style></defs><title>silhouette</title><path class="cls-1" d="M34.25,72.05h-5.4c.009-.177-.225-.226-.214-.4.019-.335-.062-.665-.056-1a1.668,1.668,0,0,1,.186-.961c.113-.168.293-.211.444-.309.532-.343,1.177-.493,1.389-1.274.17-.627.549-1.207.788-1.829a2.14,2.14,0,0,0-.062-1.688c-.038-.086-.085-.182-.2-.159-.2.042-.231-.1-.251-.23-.045-.287-.067-.578-.106-.867-.027-.2.033-.322.24-.36a.271.271,0,0,0,.234-.326q-.048-.759-.087-1.519a.294.294,0,0,0-.2-.287.717.717,0,0,1-.232-.143.257.257,0,0,0-.31-.062c-.235.083-.374-.021-.437-.264s-.01-.517-.095-.766c-.024-.073.014-.109.087-.15a2.543,2.543,0,0,1,.676-.228c.117-.027.239-.069.23-.219-.028-.514-.019-1.032-.1-1.542-.019-.125-.113-.2-.251-.258a1.658,1.658,0,0,0-.551-.1c-.427-.036-.51-.133-.544-.559a1.319,1.319,0,0,0-.059-.565c-.045-.083-.1-.161-.018-.249a.254.254,0,0,1,.257-.052,3.984,3.984,0,0,0,.514.091c.45.026.456.012.314-.419a.54.54,0,0,1,.279-.655c.081-.044.212-.043.215-.2.009-.529.025-1.058-.011-1.587-.024-.359.106-.712.05-1.069a3.86,3.86,0,0,1,.05-1.041A.914.914,0,0,0,31,50.22a1.187,1.187,0,0,1-.086-1.057,2.6,2.6,0,0,0,.11-1.3c-.031-.21-.105-.28-.329-.3-.473-.045-.837.016-.958.56-.045.2-.223.254-.416.231-.208-.025-.446-.033-.508-.281-.053-.21-.169-.215-.345-.216-.266,0-.563.03-.668-.33-.026-.087-.134-.105-.232-.118-.248-.035-.5-.069-.579-.379a.186.186,0,0,0-.167-.134c-.215-.023-.293-.153-.316-.35-.015-.124-.07-.242-.086-.365-.032-.256-.219-.505-.2-.722a9.718,9.718,0,0,1-.042-1.033.219.219,0,0,0-.159-.252,3.288,3.288,0,0,0-.435-.186c-.489-.116-.61-.429-.463-.948.3-1.073.687-2.121,1.065-3.171a.438.438,0,0,0,.037-.315A.671.671,0,0,1,26.258,39c.111-.29.155-.6.25-.889a1.2,1.2,0,0,0-.091-.985.887.887,0,0,1-.113-.787c.368-.832.648-1.694.935-2.555.215-.647.48-1.277.645-1.942.042-.171.055-.292-.148-.38a.4.4,0,0,1-.211-.487,3.058,3.058,0,0,1,.328-.859.4.4,0,0,1,.451-.189.965.965,0,0,1,.353.12c.148.106.2.025.27-.082a1.116,1.116,0,0,0,.154-.721,10.6,10.6,0,0,1,.033-2.342.246.246,0,0,0-.057-.232.351.351,0,0,1-.091-.371,4.9,4.9,0,0,1,.3-.942,2.139,2.139,0,0,0,.252-.979c.018-.815,0-1.632-.04-2.446a1.538,1.538,0,0,1,.465-1.215,1.176,1.176,0,0,0,.282-.571,16.22,16.22,0,0,0,.291-1.7,19.137,19.137,0,0,1,.48-2.014,5.861,5.861,0,0,1,.463-1.23,1.823,1.823,0,0,1,1.261-1.079c.165-.033.324-.074.362-.285.017-.094.123-.1.207-.106.142,0,.283,0,.425,0a.21.21,0,0,1,.243.2c.013.073.018.15.109.179a.623.623,0,0,0,.589-.221c.044-.076.1-.067.166-.065.258.006.517.012.774,0a4.116,4.116,0,0,1,1.578.1c.066.023.185.032.208-.035.088-.256.29-.474.291-.754a3.09,3.09,0,0,1,.042-.545,5.347,5.347,0,0,1,.542-1.36.542.542,0,0,0,.062-.4,3.768,3.768,0,0,1-.1-.54c-.01-.08.011-.178.122-.1.231.157.238.017.249-.163a2.792,2.792,0,0,1,.26-1.147.356.356,0,0,0,.02-.378c-.042-.061-.064-.128,0-.178s.149,0,.2.054c.113.143.216.294.326.446.081,0,.1-.17.192-.1s.023.168,0,.254a1.9,1.9,0,0,0-.053.193c-.024.146-.057.3.19.249a.145.145,0,0,1,.149.071c.026.035.059.064.105.042a.111.111,0,0,0,.051-.13c-.021-.131-.051-.261-.074-.392-.012-.064-.039-.145.057-.162.072-.012.095.055.108.113.04.179.074.359.119.536.014.056.02.184.087.145.171-.1.191.066.276.119.1.065.2.181.334.127a.335.335,0,0,0,.2-.317,1.033,1.033,0,0,1,.13-.4.236.236,0,0,1,.243-.143c.111.015.084.128.092.205.03.29.053.58.085.869.013.123.05.22.206.123.049-.031.11-.1.175-.033a.211.211,0,0,1,.049.211,1.926,1.926,0,0,0,.2,1.367,3.716,3.716,0,0,1,.318,1.123,2.678,2.678,0,0,0,.185.808c.078.221.182.263.389.2a2.707,2.707,0,0,1,.841-.1c.4.014.8.02,1.2.035.176.007.411-.113.464.2,0,.017.038.03.061.039a.525.525,0,0,0,.6-.208.219.219,0,0,1,.183-.112c.158-.009.317-.015.475-.014a.189.189,0,0,1,.21.141c.034.162.162.207.291.237a1.915,1.915,0,0,1,1.3,1.087,11.729,11.729,0,0,1,.819,2.584c.215.819.254,1.676.454,2.5a.714.714,0,0,0,.171.326,1.677,1.677,0,0,1,.531.913c.034.319.008.644.019.966a10.041,10.041,0,0,0,.082,2.5c.056.2.181.358.228.54a1.573,1.573,0,0,1,.05,1.251.218.218,0,0,0,0,.122,8.358,8.358,0,0,1,.038,2.212,1.26,1.26,0,0,0,.114.78c.08.153.142.217.34.117.359-.183.667-.21.877.3.083.2.154.4.221.609a.4.4,0,0,1-.2.512c-.2.1-.19.216-.153.383a15.418,15.418,0,0,0,.567,1.756A26.446,26.446,0,0,0,54,36.3a.415.415,0,0,1,.058.289,3.2,3.2,0,0,1-.288.87.43.43,0,0,0-.04.381c.141.435.216.89.375,1.321a.289.289,0,0,1,.006.22.561.561,0,0,0,.015.437q.37,1.114.745,2.226c.125.37.256.738.384,1.107v.2a.985.985,0,0,1-.244.211c-.066.032-.181.082-.143.146.139.24-.079.241-.186.286-.336.143-.67.273-.544.749a.287.287,0,0,1-.028.145.772.772,0,0,0-.007.491.235.235,0,0,1-.059.271.324.324,0,0,0-.078.18c-.052.269-.109.537-.166.806a.305.305,0,0,1-.3.28.178.178,0,0,0-.183.141.426.426,0,0,1-.357.3c-.209.057-.421.08-.53.346-.1.234-.668.194-.816-.044-.021.1-.037.192-.057.28-.07.307-.17.367-.526.419a.405.405,0,0,1-.5-.315c-.182-.478-.2-.473-.711-.473h-.15c-.342,0-.354.038-.4.387a3.149,3.149,0,0,0,.161,1.346.864.864,0,0,1-.073.767.576.576,0,0,0-.094.43c.128.672.017,1.355.114,2.036.089.623-.055,1.267.021,1.906.018.156.079.211.174.243a.352.352,0,0,1,.248.487c-.024.1-.037.2-.061.293-.061.243-.007.326.25.323a4.847,4.847,0,0,0,.67-.058c.177-.028.231.052.226.2-.007.2-.025.4-.035.6-.025.532-.063.57-.6.584-.05,0-.1,0-.15,0-.441.018-.6.181-.615.618-.013.358-.023.716-.059,1.071-.032.32-.007.382.3.463.072.019.146.033.219.049.4.088.43.125.411.506a3.487,3.487,0,0,1-.038.522c-.057.293-.24.368-.491.218-.067-.04-.129-.055-.167.026s-.128.107-.176.17c-.133.176-.36.294-.373.544-.024.44-.076.879-.064,1.322a.311.311,0,0,0,.247.346c.139.036.257.108.24.273-.036.339-.076.678-.132,1.014-.019.119-.066.273-.243.121-.061-.052-.08,0-.11.043a2.544,2.544,0,0,0-.289,1.377c0,.007.007.015.009.023a15.508,15.508,0,0,0,.707,1.758.945.945,0,0,0,.167.332.445.445,0,0,1,.124.295.815.815,0,0,0,.369.648c.34.193.674.4,1.027.566a.9.9,0,0,1,.525.729c.077.42-.087.845.048,1.264.021.064-.054.155-.068.236-.028.162-.248.21-.229.4h-5.4a.178.178,0,0,0-.164-.186c-.173-.027-.342-.073-.515-.1a.465.465,0,0,1-.408-.656A.588.588,0,0,0,45,70.821a6.562,6.562,0,0,1-.045-1.668c.055-.633.012-1.265.029-1.9,0-.046.029-.124-.081-.109-.19.025-.168-.141-.109-.2.245-.236.148-.5.114-.771-.012-.09-.061-.207-.023-.266.183-.29.07-.6.1-.9a.33.33,0,0,0-.106-.269,1.035,1.035,0,0,1-.185-1.22.383.383,0,0,0,.031-.267c-.078-.366-.15-.734-.244-1.1a1.24,1.24,0,0,0-.384-.68.925.925,0,0,1-.218-1.013c.024-.1.083-.189.04-.288a14.059,14.059,0,0,1-.548-1.917c-.02-.071-.033-.153-.109-.19-.431-.213-.318-.651-.351-.99a1.137,1.137,0,0,0-.114-.469c-.072-.131-.139-.265-.21-.4-.09-.167-.073-.3.115-.388.11-.053.2-.128.126-.277-.23-.484-.277-1.034-.531-1.511a.462.462,0,0,1-.058-.19,10.649,10.649,0,0,0-.352-1.424c-.088-.471-.1-.988-.543-1.32-.033-.026-.041-.089-.054-.137-.194-.7-.279-1.419-.438-2.125a.623.623,0,0,1,.164-.622.352.352,0,0,0,.139-.282,1.974,1.974,0,0,0-.263-.922,1.17,1.17,0,0,1-.208-.781.715.715,0,0,0-.105-.379,1.609,1.609,0,0,1-.21-1.128,2.85,2.85,0,0,0,.079-.94,1.586,1.586,0,0,0-.294-.744c-.031.115-.151.153-.174.256a2.52,2.52,0,0,0-.054,1.52.791.791,0,0,1-.054.628,1.655,1.655,0,0,0-.256.772,2.073,2.073,0,0,1-.274.97c-.159.362-.368.756.029,1.125a.518.518,0,0,1,.092.518q-.216,1.077-.431,2.152a.29.29,0,0,1-.178.227c-.23.073-.257.259-.29.447-.02.115-.029.231-.048.346A15.557,15.557,0,0,1,38,53.9a2.86,2.86,0,0,0-.219.683,3.312,3.312,0,0,1-.275.924c-.053.163-.049.244.1.318.129.064.229.163.153.318a3.4,3.4,0,0,0-.192.6,2.811,2.811,0,0,1-.508,1.4.239.239,0,0,0-.039.117,12.466,12.466,0,0,1-.528,1.692c-.069.189-.159.365-.034.568a.307.307,0,0,1-.021.266,5.344,5.344,0,0,1-.4.839,4.693,4.693,0,0,0-.469,1.749.276.276,0,0,0,.052.188.947.947,0,0,1-.081,1.036.67.67,0,0,0-.23.591,3.607,3.607,0,0,1-.031.373c-.01.086-.016.18.057.231.184.128.1.276.03.407a.728.728,0,0,0-.069.333c-.04,1.274.11,2.544.063,3.818-.011.29-.059.578-.058.871,0,.5-.09.583-.591.572a.588.588,0,0,0-.123-.014C34.431,71.815,34.265,71.838,34.25,72.05Zm.956-56.127c0-.214-.021-.243-.224-.266a.407.407,0,0,1-.257-.134.718.718,0,0,0-.808.007.782.782,0,0,1-.768.073.325.325,0,0,0-.544.087,2.94,2.94,0,0,0-.213.45,10.014,10.014,0,0,0-.493,2.23c-.012.091-.045.185.079.229a.221.221,0,0,0,.277-.1,6.216,6.216,0,0,1,.87-.807,1.938,1.938,0,0,1,.851-.4.3.3,0,0,0,.258-.357c-.013-.174.016-.353-.011-.524s.054-.236.21-.251c.2-.018.4-.044.594-.062C35.139,16.087,35.23,16.066,35.206,15.923Z"/></svg>