<svg id="レイヤー_1" data-name="レイヤー 1" xmlns="http://www.w3.org/2000/svg" width="80" height="80" viewBox="0 0 80 80">
  <defs>
    <style>
      .cls-1 {
        fill: #fff;
      }
    </style>
  </defs>
  <title>アートボード 1</title>
  <g>
    <path class="cls-1" d="M23.088,35.381l.082-.314c-.173.116-.309.2-.441.3-.265.187-.535.364-.816.526a1.17,1.17,0,0,1-.713.144c-.075-.007-.174,0-.2-.088s.078-.122.144-.149a5.506,5.506,0,0,0,1.178-.725,4.586,4.586,0,0,0,.613-.595.312.312,0,0,0,.086-.135.784.784,0,0,1,.307-.446,1.712,1.712,0,0,0,.383-.517,7.894,7.894,0,0,0,.659-1.5.764.764,0,0,1,.255-.456.62.62,0,0,0,.273-.561.365.365,0,0,1,.082-.213.266.266,0,0,0,.074-.19.479.479,0,0,1,.157-.372c.129-.143.269-.276.4-.414a.286.286,0,0,1,.29-.1.221.221,0,0,0,.226-.084c.143-.151.3-.294.43-.453a11.758,11.758,0,0,1,1.2-1.312c.728-.636,1.3-1.422,2.012-2.065a.761.761,0,0,1,.178-.145c.468-.218.9-.5,1.383-.7a5.643,5.643,0,0,0,.918-.534.237.237,0,0,0,.114-.139c.069-.274.285-.475.367-.742a.378.378,0,0,1,.169-.185l1.049-.719a.753.753,0,0,1,.368-.125c.107-.01.213-.043.319-.044a.26.26,0,0,0,.271-.226c.454-1.539,1.041-3.032,1.615-4.529.461-1.2.926-2.4,1.272-3.644a3.068,3.068,0,0,0,.079-1.485c-.048-.226-.084-.455-.128-.682-.008-.042,0-.094-.085-.132a3.5,3.5,0,0,1-.574,1.965.41.41,0,0,1-.232.208,2.694,2.694,0,0,0,.393-.824,8.5,8.5,0,0,0,.272-1.381,5,5,0,0,0-.075-1.239,6.592,6.592,0,0,1,.034-1.887,2.7,2.7,0,0,0-.033-.849A15.14,15.14,0,0,1,37.34,5.3a2.828,2.828,0,0,1,.052-.436c.059-.3.231-.378.5-.25.166.08.181.072.185-.106,0-.146,0-.293,0-.439,0-.054.007-.115.063-.14s.119.014.164.057a2.354,2.354,0,0,1,.328.417c.084.127.164.257.258.4.086-.181.16-.34.237-.5a2.169,2.169,0,0,1,.239-.395c.042-.053.08-.128.16-.114s.078.1.093.167a1.692,1.692,0,0,1,.038.367c0,.192,0,.384,0,.613a1.694,1.694,0,0,1,.53-.12c.023-.084-.042-.1-.078-.137a.647.647,0,0,1-.19-.675A4.39,4.39,0,0,1,40.368,3c.072-.136.153-.268.226-.4a1.017,1.017,0,0,1,.436-.4c.231-.125.408-.035.465.222a1,1,0,0,1,.006.368,4.835,4.835,0,0,0-.093.592c0,.028-.017.06-.07.06a.535.535,0,0,1-.028-.283.887.887,0,0,0-.1-.422.313.313,0,0,0-.273-.186.284.284,0,0,0-.265.192,3.525,3.525,0,0,0-.237.724,3.068,3.068,0,0,0-.085.94.657.657,0,0,0,.049.248c.074.155.154.178.284.061a6.264,6.264,0,0,1,.608-.459.921.921,0,0,1,.717-.168A6.76,6.76,0,0,1,44.93,5.232c.081.058.157.124.236.186l.213.168c.072-.048.036-.1.028-.152-.062-.38-.129-.76-.188-1.14-.016-.1-.064-.239.071-.281.112-.036.167.089.221.169a5.522,5.522,0,0,1,.375.7c.072-.031.054-.093.063-.138a6.861,6.861,0,0,1,.177-.718c.023-.073.053-.144.083-.215.015-.035.035-.076.079-.075s.069.053.082.1a1.389,1.389,0,0,1,.045.343c.013.244.031.487.047.74.087-.037.1-.112.129-.169A10.418,10.418,0,0,1,47.232,3.7a.935.935,0,0,1,.254-.266.157.157,0,0,1,.253.058,1.254,1.254,0,0,1,.151.386c.23.952.406,1.914.563,2.881q.2,1.221.3,2.454c.093,1.147.359,2.266.51,3.4a10.145,10.145,0,0,0,.21,1.183c.312,1.219.45,2.47.684,3.7.257,1.355.469,2.718.676,4.082.12.791.2,1.59.282,2.386a8.97,8.97,0,0,1,.052.992c0,.394.047.784.05,1.177a13.389,13.389,0,0,1-.1,1.659,9.251,9.251,0,0,1-.249,1.5,2.529,2.529,0,0,1-.132.394,1.105,1.105,0,0,0,.1.942c.149-.286.279-.536.411-.786q.259-.491.521-.98c.018-.034.035-.069.055-.1s.04-.092.092-.094c.073,0,.077.067.093.114a13,13,0,0,1,.641,2.623c.059.519.049,1.046.059,1.57.017.863.007,1.727-.054,2.588a8.5,8.5,0,0,0-.036,1.246c.047.614.107,1.228.16,1.842a1.32,1.32,0,0,1-.135.895c-.034.051-.017.09.006.146a2.427,2.427,0,0,0,.82,1.038c.179.133.349.28.526.416a1.751,1.751,0,0,0,.411.251.663.663,0,0,1,.425.458.677.677,0,0,0,.346.441,1.333,1.333,0,0,1,.592.683,2.768,2.768,0,0,0,1.128,1.308.262.262,0,0,1,.083.078c.041.066.026.128-.056.137a1.017,1.017,0,0,1-.5.005.275.275,0,0,0-.2-.027.877.877,0,0,1-.8-.2,1.91,1.91,0,0,1-.471-.5A4.142,4.142,0,0,0,53.6,42.616a1.794,1.794,0,0,1-.482-.355,1.267,1.267,0,0,0-.952-.338.373.373,0,0,0-.292.162,2.092,2.092,0,0,0-.326.609.792.792,0,0,1-.459.431.43.43,0,0,1-.133.035c-.21.013-.3-.11-.221-.306.031-.079.069-.155.106-.231a2.869,2.869,0,0,0,.2-.655,5.846,5.846,0,0,0,.081-1.171,2.461,2.461,0,0,1,.032-.3.217.217,0,0,0-.121-.268.355.355,0,0,1-.189-.323c-.046-.507-.151-1.005-.235-1.506a3.55,3.55,0,0,0-.172-.67c-.19-.5-.378-1.011-.553-1.521a8.41,8.41,0,0,0-.424-.948,14.661,14.661,0,0,1-.62-1.368.288.288,0,0,0-.037-.056c-.076,0-.077.071-.095.115a16.229,16.229,0,0,1-.936,1.934c-.209.367-.367.763-.579,1.131-.33.575-.652,1.154-.989,1.725a.456.456,0,0,0-.046.412,6.272,6.272,0,0,1,.177.646.435.435,0,0,0,.246.31c.238.128.469.266.7.4a1.8,1.8,0,0,1,.3.221.507.507,0,0,1,.146.586,8.565,8.565,0,0,1-.688,1.538.691.691,0,0,0-.078.551c.044.164.075.331.1.5a.176.176,0,0,0,.206.168,1.287,1.287,0,0,1,.231,0,.277.277,0,0,1,.263.286,1.286,1.286,0,0,0,.027.159c.046.2.11.4.137.609a8.278,8.278,0,0,0,.887,2.346c.67,1.456,1.364,2.9,2.016,4.367a4.41,4.41,0,0,1,.259.667,1.97,1.97,0,0,1-.017,1.072c-.009.029-.021.058-.032.087-.072.2-.073.2.131.281.186.076.373.146.558.223.279.117.339.221.3.518a3.094,3.094,0,0,1-.612,1.478c-.037.049-.074.1-.115.145-.08.089-.124.165,0,.266a.263.263,0,0,1,.041.3.714.714,0,0,0,.025.645.147.147,0,0,1,.014.09,1.253,1.253,0,0,0,.221.783c.018.032.042.078.033.107-.053.159.052.263.123.379a6.818,6.818,0,0,1,.394.733.392.392,0,0,1,.052.311.6.6,0,0,0,.018.4,24.916,24.916,0,0,1,.527,2.6,25.342,25.342,0,0,1,.25,2.622,21.36,21.36,0,0,0,.36,3.375c.032.151.07.3.1.451a1.149,1.149,0,0,0,.364.677c.162.142.157.16.022.344a.235.235,0,0,0-.013.239c.249.827.441,1.669.651,2.506a3.4,3.4,0,0,1,.129,1.165,3.157,3.157,0,0,0,.029.414c.01.27.019.539.02.809,0,.342-.037.386-.374.461a.87.87,0,0,1-.229.016q-.277-.012-.555-.009c-.178,0-.211.034-.228.216a2.226,2.226,0,0,0-.008.3.41.41,0,0,1-.235.415c-.123.063-.245.13-.372.185-.226.1-.458.185-.681.288a4.415,4.415,0,0,1-1.338.343c-.443.054-.889.084-1.336.095a3.371,3.371,0,0,1-1.43-.33c-.08-.034-.16-.08-.179-.169a3.865,3.865,0,0,1-.189-.805.783.783,0,0,1,.558-.832q.184-.07.369-.136a3.006,3.006,0,0,0,1.163-.814.938.938,0,0,0,.12-.169c.188-.319.366-.643.562-.957a8.793,8.793,0,0,0,.678-1.567.373.373,0,0,0,.014-.182,9.5,9.5,0,0,1-.081-.99.339.339,0,0,0-.1-.271.2.2,0,0,1-.048-.252.492.492,0,0,0,.005-.316,23.476,23.476,0,0,0-.984-3.442c-.179-.5-.373-1-.549-1.5-.031-.087-.035-.2-.176-.213-.054,0-.04-.074-.038-.119a1.6,1.6,0,0,0-.189-.753.2.2,0,0,0-.035.157,5.32,5.32,0,0,0,.11,1.264.655.655,0,0,1,.018.114.063.063,0,0,1-.043.073.076.076,0,0,1-.08-.033.684.684,0,0,1-.133-.292,5.167,5.167,0,0,1-.112-.847c-.036-.43-.044-.862-.046-1.293a1.043,1.043,0,0,0-.124-.469c-.093.041-.125.128-.189.179a.277.277,0,0,1-.32.043.592.592,0,0,1-.337-.515.992.992,0,0,1,.084-.474.58.58,0,0,0,.029-.361c-.113-.464-.226-.929-.322-1.4a.262.262,0,0,0-.27-.25.922.922,0,0,1-.412-.141c-.073-.045-.123-.1-.08-.188a.226.226,0,0,0-.029-.22,2.712,2.712,0,0,0-.526-.754.2.2,0,0,1-.063-.067c-.072-.194-.227-.233-.413-.259a3.807,3.807,0,0,1-.99-.308,1.142,1.142,0,0,1-.1-.05.306.306,0,0,1-.186-.417,8.131,8.131,0,0,1,.254-.817c.1-.29.1-.29-.182-.4-.474-.181-.493-.209-.494-.727,0-.185-.013-.371,0-.555a.354.354,0,0,0-.225-.381c-.3-.162-.58-.351-.876-.517a1.266,1.266,0,0,1-.654-1.213c0-.964,0-1.927,0-2.891a1.42,1.42,0,0,0-.013-.253c-.022-.121-.092-.171-.2-.115-.282.146-.583.243-.871.371a.25.25,0,0,0-.146.221.961.961,0,0,0,0,.185,9.525,9.525,0,0,1-.085,2.027.782.782,0,0,0,.039.318c.166.538.39,1.055.585,1.583.12.325.243.65.362.976a1.423,1.423,0,0,1-.144,1.326c-.084.129-.146.271-.241.394-.054.07-.169.135-.023.235.045.031.012.1-.015.15a.368.368,0,0,0-.059.242,6.473,6.473,0,0,0,.156.84.341.341,0,0,0,.031.087,2.32,2.32,0,0,1,.147,1.434.8.8,0,0,0,.029.226c.122.5.253,1,.346,1.51a.385.385,0,0,1-.083.343c-.094.113-.181.231-.281.337a.457.457,0,0,0-.13.309c-.05,1.008-.1,2.017-.072,3.027.022.754,0,1.511.083,2.263a5.019,5.019,0,0,0,.174.907c.047.155.1.309.139.465a.359.359,0,0,0,.113.194c.129.11.132.122.025.26a.211.211,0,0,0-.04.211,11.987,11.987,0,0,1,.312,1.844,2.617,2.617,0,0,1,.007.577c-.06.545-.023,1.092-.039,1.638a1.316,1.316,0,0,1-.036.321c-.023.083-.063.139-.161.129a.29.29,0,0,0-.115.007,2.059,2.059,0,0,1-1.072.007c-.162-.033-.184-.007-.265.149a.731.731,0,0,0-.065.267.449.449,0,0,1-.371.431,28.456,28.456,0,0,1-2.969.693c-.327.054-.655.108-.983.142a2,2,0,0,1-1.63-.488.683.683,0,0,1-.248-.545c0-.224-.016-.446-.03-.668a.968.968,0,0,1,.015-.207.413.413,0,0,1,.291-.35c.548-.207,1.115-.361,1.659-.576a13.112,13.112,0,0,0,1.844-.91.928.928,0,0,0,.372-.4c.208-.422.42-.841.625-1.265a1.305,1.305,0,0,0,.008-.86c-.014-.069-.1-.094-.144-.146s-.078-.112-.008-.158c.125-.082.1-.192.081-.309a43.359,43.359,0,0,0-.906-4.414c-.1-.373-.18-.75-.31-1.113-.026-.072-.052-.143-.089-.244-.045.084-.016.185-.106.2a.2.2,0,0,1-.184-.078,2.874,2.874,0,0,0-.453-.357.4.4,0,0,1-.187-.3c-.025-.276-.061-.551-.076-.828-.038-.654-.071-1.309-.054-1.964a.546.546,0,0,0-.148-.42.509.509,0,0,1-.19-.45.146.146,0,0,0-.017-.089,4.214,4.214,0,0,1-.289-1.089c-.043-.17-.046-.348-.2-.475-.093-.075-.028-.167.03-.245.146-.2.144-.195-.021-.384a3.959,3.959,0,0,1-.618-.945.427.427,0,0,1,.068-.529,3.618,3.618,0,0,0,.3-.385c.083-.117.079-.143-.05-.212a8.3,8.3,0,0,1-.812-.488,2.854,2.854,0,0,1-.762-.828.414.414,0,0,1-.023-.439c.045-.089.092-.178.142-.265a10.188,10.188,0,0,0,.746-1.614.381.381,0,0,0-.112-.472c-.38-.338-.751-.685-1.109-1.047a10.1,10.1,0,0,1-2-2.923c-.019-.042-.035-.086-.053-.128a1.146,1.146,0,0,1,.172-1.307,12.818,12.818,0,0,0,1.181-1.767.383.383,0,0,0,0-.451,3.218,3.218,0,0,0-.191-.289,6.153,6.153,0,0,1-.907-1.577c-.18-.418-.351-.839-.489-1.273-.026-.081-.049-.162-.07-.244a.478.478,0,0,1,.17-.535c.45-.375.891-.76,1.312-1.169a2.871,2.871,0,0,0,.384-.4c.113-.163,0-.358.008-.54.017-.369.01-.74.013-1.11a.417.417,0,0,1,.007-.115,4.648,4.648,0,0,0,.012-1.214c0-.061-.013-.123-.012-.184,0-.249.056-.306.307-.342.172-.025.169-.024.151-.2a5.056,5.056,0,0,1,.006-.693,19.109,19.109,0,0,0,.064-2.239,15.414,15.414,0,0,1,.031-1.986,24.171,24.171,0,0,1,.317-2.8.882.882,0,0,0,.019-.114c0-.115-.062-.153-.163-.092a9.794,9.794,0,0,0-.853.542.835.835,0,0,0-.366.539.4.4,0,0,1-.106.227,5.719,5.719,0,0,1-1.274,1.1c-.244.132-.482.275-.729.4a8.556,8.556,0,0,0-1.134.755c-.574.416-1.18.789-1.727,1.242a11.85,11.85,0,0,0-1.279,1.2.465.465,0,0,0-.135.419,2.663,2.663,0,0,1,.023.322.818.818,0,0,1-.207.6.969.969,0,0,1-.118.142c-.214.168-.229.445-.367.655-.043.066.007.133.019.2a9.058,9.058,0,0,0,.417,1.222.709.709,0,0,1-.02.539c-.025.055-.049.126-.125.116s-.073-.074-.08-.127a5.594,5.594,0,0,0-.576-1.53c-.021-.047-.037-.108-.1-.11s-.085.057-.112.1a3.581,3.581,0,0,0-.572,1.421c-.052.209-.113.416-.177.622a1.144,1.144,0,0,1-.4.53c-.041.034-.09.072-.144.028a.116.116,0,0,1-.023-.129c.01-.037.019-.075.032-.111a11.953,11.953,0,0,0,.423-1.537,3.713,3.713,0,0,0,.073-.548c0-.061,0-.13-.07-.157a.14.14,0,0,0-.16.065,2.743,2.743,0,0,0-.183.266.932.932,0,0,1-.31.336A.888.888,0,0,1,23.088,35.381Zm22.477-.011v0c.17,0,.339,0,.509,0,.109,0,.152.061.13.167-.011.053-.021.106-.034.158q-.13.5-.261,1.006a.588.588,0,0,0-.04.272,3.337,3.337,0,0,1,.044.6c0,.145.043.162.168.078a4.275,4.275,0,0,0,.476-.4,5.922,5.922,0,0,0,.736-1,2.391,2.391,0,0,0,.313-.616,19.93,19.93,0,0,0,.692-2.659.433.433,0,0,0-.04-.311,3.858,3.858,0,0,1-.361-1.094,1.289,1.289,0,0,1,.026-.8.215.215,0,0,0,0-.114,7.052,7.052,0,0,1-.159-.909c-.23-1.156-.515-2.3-.775-3.45a.636.636,0,0,0-.042-.132c-.026-.056-.071-.052-.114-.019a.267.267,0,0,0-.075.141c-.068.2-.141.408-.2.616a4.569,4.569,0,0,1-.872,1.744,2.943,2.943,0,0,0-.385.682.384.384,0,0,0-.036.292.481.481,0,0,1-.163.519c-.1.108-.2.209-.307.314a.233.233,0,0,0-.056.253c.068.231.063.234-.15.359-.073.043-.167.079-.16.179a.643.643,0,0,1-.193.455,2.272,2.272,0,0,0-.309.618c-.034.088-.058.172.037.249a.119.119,0,0,1-.01.2c-.163.111-.119.244-.07.389a15.729,15.729,0,0,0,1.01,2.1.2.2,0,0,0,.209.113C45.256,35.368,45.41,35.37,45.564,35.37ZM47.2,9.058c0,.052,0,.1,0,.155a4.923,4.923,0,0,1-.027.715,14.729,14.729,0,0,1-.37,1.644,2.744,2.744,0,0,1-.5,1.007.323.323,0,0,0-.088.274.424.424,0,0,1-.136.4.548.548,0,0,0-.171.414c-.005.239-.03.476-.045.715-.045.692-.13,1.38-.219,2.067-.072.558-.167,1.112-.275,1.664a.245.245,0,0,0,.119.294c.073.043.143.092.219.128.244.114.492.222.736.336a.566.566,0,0,0,.467.051.139.139,0,0,1,.2.065c.062.16.2.174.335.2.243.042.489.061.728.126a.9.9,0,0,1,.615.515,2.813,2.813,0,0,1,.177.525,10.019,10.019,0,0,1,.147,1.028,16.6,16.6,0,0,1,.125,1.75,4.153,4.153,0,0,0,.046.644c.035.193.068.4.331.434a.631.631,0,0,1,.166.078c.149.069.175.053.176-.107,0-.023,0-.046,0-.069-.045-.653-.095-1.3-.166-1.956-.156-1.425-.386-2.839-.635-4.25-.353-2-.8-3.988-1.223-5.977-.17-.8-.359-1.593-.487-2.4A.95.95,0,0,0,47.2,9.058ZM34.737,33.766a14.068,14.068,0,0,0,.768-1.451.948.948,0,0,0,.062-.221c.04-.22.068-.442.114-.66a.58.58,0,0,0-.034-.426.126.126,0,0,1,.045-.2.251.251,0,0,0,.118-.211c.079-.486.187-.967.24-1.458.051-.475.21-.931.285-1.4a2.381,2.381,0,0,0,.068-.687,13.252,13.252,0,0,1-.041-1.662,2.174,2.174,0,0,1,.105-.751c.01-.027.02-.059-.02-.076-.5.274-.972.589-1.449.9a.542.542,0,0,0-.252.363c-.273,1.2-.532,2.406-.717,3.625-.1.647-.188,1.3-.237,1.948-.021.278-.013.278.251.214.144-.035.2,0,.237.136a.657.657,0,0,1,.016.16,6.4,6.4,0,0,1-.028.715.592.592,0,0,0,.012.307,1.092,1.092,0,0,0,.3-.225c.046-.038.092-.095.161-.054.053.031.052.091.053.145a.367.367,0,0,1,0,.069C34.738,33.163,34.774,33.465,34.737,33.766ZM39.49,19.184c.048-.007.148-.016.245-.038.248-.056.491-.134.741-.174a.686.686,0,0,0,.472-.294.558.558,0,0,1,.269-.243.339.339,0,0,0,.222-.216,1.829,1.829,0,0,0,.133-.836.232.232,0,0,0-.085-.206,5.409,5.409,0,0,1-.734-.666,8.348,8.348,0,0,1-1.469-1.494.2.2,0,0,0-.031-.034c-.073-.068-.118-.061-.148.037a3.815,3.815,0,0,0-.187.784c-.021.23-.046.459-.07.689-.067.635-.136,1.27-.2,1.905-.021.207-.039.414-.046.621,0,.141.078.195.209.149a.483.483,0,0,0,.117-.072.142.142,0,0,1,.207.006C39.222,19.194,39.33,19.184,39.49,19.184Zm11,10.464a.263.263,0,0,0,.077-.172,13.371,13.371,0,0,0,.144-1.908,4.062,4.062,0,0,1,.018-.438,4.169,4.169,0,0,0,.011-.807c-.051-.653-.031-1.307-.071-1.96-.012-.19.026-.383.031-.575.007-.308-.021-.615-.029-.922-.015-.555-.048-1.107-.116-1.658a12.759,12.759,0,0,0-.2-1.3,1.035,1.035,0,0,0-.007.253c.075.528.037,1.061.071,1.591.032.5.038,1,.023,1.5-.02.646,0,1.294-.012,1.941a5.507,5.507,0,0,0,.147,1.626.544.544,0,0,1-.082.5,1.1,1.1,0,0,0-.2.72.449.449,0,0,1-.007.115A3.633,3.633,0,0,0,50.491,29.647Zm-14.781-8.26a.648.648,0,0,0,.243-.24c.335-.481.665-.964,1.047-1.41a1.447,1.447,0,0,1,.831-.545c.1-.02.141-.064.133-.172-.047-.615-.08-1.23-.076-1.847,0-.04.023-.094-.06-.13C37.185,18.52,36.448,19.95,35.711,21.387Zm-9.822,8.271c-.042,0-.092.045-.142.093-.178.17-.354.341-.535.508a.3.3,0,0,0-.071.3c.012.078.068.08.115.03.069-.072.127-.154.194-.228.175-.194.351-.387.527-.58.021-.023.04-.05.026-.082S25.956,29.662,25.889,29.658Zm21.965,32.4a.077.077,0,0,0-.09.041.674.674,0,0,0,.084.669c.059.062.105.048.149-.011a1,1,0,0,0,.125-.269c.023-.067.045-.136-.012-.193A1.443,1.443,0,0,0,47.854,62.062ZM44.619,17.285a18.293,18.293,0,0,0,.143-1.827A6.937,6.937,0,0,0,44.619,17.285Zm5.331,7.183a3.365,3.365,0,0,0,.311,1.269A12.034,12.034,0,0,0,49.95,24.467ZM31.43,26.573a.843.843,0,0,0,.348-.158.078.078,0,0,0,.01-.122.075.075,0,0,0-.1-.01A.657.657,0,0,0,31.43,26.573Zm2.19,7.483.049,0v-1a2.431,2.431,0,0,0-.029.507A2.408,2.408,0,0,0,33.62,34.056Zm18.911,3.057a2.91,2.91,0,0,0,.051.944A7.766,7.766,0,0,0,52.532,37.113Z"/>
    <path class="cls-1" d="M23.088,35.381a.888.888,0,0,0,.331.236.323.323,0,0,1-.028.111c-.206.289-.359.611-.56.9a.908.908,0,0,1-.753.428c-.052,0-.115.012-.145-.045s.024-.1.058-.136a.6.6,0,0,1,.1-.1,2.1,2.1,0,0,0,.6-.78A2.3,2.3,0,0,1,23.088,35.381Z"/>
  </g>
</svg>
